<svg width="470" height="404" viewBox="0 0 470 404" fill="none" xmlns="http://www.w3.org/2000/svg">
<g filter="url(#filter0_d)">
<path fill-rule="evenodd" clip-rule="evenodd" d="M196 83H274C277.314 83 280 85.6863 280 89V111H190V89C190 85.6863 192.686 83 196 83ZM177 111V89C177 78.5066 185.507 70 196 70H274C284.493 70 293 78.5066 293 89V111H349C370.539 111 388 128.461 388 150V296C388 317.539 370.539 335 349 335H121C99.4609 335 82 317.539 82 296V150C82 128.461 99.4609 111 121 111H177ZM293 124H177H121C106.641 124 95 135.641 95 150V296C95 310.359 106.641 322 121 322H349C363.359 322 375 310.359 375 296V150C375 135.641 363.359 124 349 124H293Z" fill="white"/>
</g>
<path fill-rule="evenodd" clip-rule="evenodd" d="M284 115H186V89C186 83.4772 190.477 79 196 79H274C279.523 79 284 83.4771 284 89V115ZM181 115H121C101.67 115 86 130.67 86 150V296C86 315.33 101.67 331 121 331H349C368.33 331 384 315.33 384 296V150C384 130.67 368.33 115 349 115H289V89C289 80.7157 282.284 74 274 74H196C187.716 74 181 80.7157 181 89V115ZM190 111V89C190 85.6863 192.686 83 196 83H274C277.314 83 280 85.6863 280 89V111H190ZM349 120C365.569 120 379 133.431 379 150V296C379 312.569 365.569 326 349 326H121C104.431 326 91 312.569 91 296V150C91 133.431 104.431 120 121 120H349ZM177 111H121C99.4609 111 82 128.461 82 150V296C82 317.539 99.4609 335 121 335H349C370.539 335 388 317.539 388 296V150C388 128.461 370.539 111 349 111H293V89C293 78.5066 284.493 70 274 70H196C185.507 70 177 78.5066 177 89V111ZM349 124C363.359 124 375 135.641 375 150V296C375 310.359 363.359 322 349 322H121C106.641 322 95 310.359 95 296V150C95 135.641 106.641 124 121 124H349Z" fill="#A5A5A5"/>
<g filter="url(#filter1_d)">
<path fill-rule="evenodd" clip-rule="evenodd" d="M208.628 174C208.628 169.582 212.21 166 216.628 166H252.372C256.79 166 260.372 169.582 260.372 174V197.628H284C288.418 197.628 292 201.21 292 205.628V241.372C292 245.79 288.418 249.372 284 249.372H260.372V273C260.372 277.418 256.79 281 252.372 281H216.628C212.21 281 208.628 277.418 208.628 273V249.372H185C180.582 249.372 177 245.79 177 241.372V205.628C177 201.21 180.582 197.628 185 197.628H208.628V174ZM220.493 177.865H248.507V205.493C248.507 207.702 250.298 209.493 252.507 209.493H280.135V237.507H252.507C250.298 237.507 248.507 239.298 248.507 241.507V269.135H220.493V241.507C220.493 239.298 218.702 237.507 216.493 237.507H188.865V209.493H216.493C218.702 209.493 220.493 207.702 220.493 205.493V177.865Z" fill="white"/>
</g>
<path fill-rule="evenodd" clip-rule="evenodd" d="M256.372 201.628V174C256.372 171.791 254.581 170 252.372 170H216.628C214.419 170 212.628 171.791 212.628 174V201.628H185C182.791 201.628 181 203.419 181 205.628V241.372C181 243.581 182.791 245.372 185 245.372H212.628V273C212.628 275.209 214.419 277 216.628 277H252.372C254.581 277 256.372 275.209 256.372 273V245.372H284C286.209 245.372 288 243.581 288 241.372V205.628C288 203.419 286.209 201.628 284 201.628H256.372ZM216.493 173.865H252.507V205.493L284.135 205.493V241.507H252.507V273.135H216.493V241.507H184.865V205.493H216.493V173.865ZM216.628 166C212.21 166 208.628 169.582 208.628 174V197.628H185C180.582 197.628 177 201.21 177 205.628V241.372C177 245.79 180.582 249.372 185 249.372H208.628V273C208.628 277.418 212.21 281 216.628 281H252.372C256.79 281 260.372 277.418 260.372 273V249.372H284C288.418 249.372 292 245.79 292 241.372V205.628C292 201.21 288.418 197.628 284 197.628H260.372V174C260.372 169.582 256.79 166 252.372 166H216.628ZM220.493 177.865V205.493C220.493 207.702 218.702 209.493 216.493 209.493H188.865V237.507H216.493C218.702 237.507 220.493 239.298 220.493 241.507V269.135H248.507V241.507C248.507 239.298 250.298 237.507 252.507 237.507H280.135V209.493H252.507C250.298 209.493 248.507 207.702 248.507 205.493V177.865H220.493Z" fill="#FF008A"/>
<defs>
<filter id="filter0_d" x="0" y="-12" width="470" height="429" filterUnits="userSpaceOnUse" color-interpolation-filters="sRGB">
<feFlood flood-opacity="0" result="BackgroundImageFix"/>
<feColorMatrix in="SourceAlpha" type="matrix" values="0 0 0 0 0 0 0 0 0 0 0 0 0 0 0 0 0 0 127 0" result="hardAlpha"/>
<feOffset/>
<feGaussianBlur stdDeviation="41"/>
<feColorMatrix type="matrix" values="0 0 0 0 1 0 0 0 0 1 0 0 0 0 1 0 0 0 1 0"/>
<feBlend mode="normal" in2="BackgroundImageFix" result="effect1_dropShadow"/>
<feBlend mode="normal" in="SourceGraphic" in2="effect1_dropShadow" result="shape"/>
</filter>
<filter id="filter1_d" x="95" y="84" width="279" height="279" filterUnits="userSpaceOnUse" color-interpolation-filters="sRGB">
<feFlood flood-opacity="0" result="BackgroundImageFix"/>
<feColorMatrix in="SourceAlpha" type="matrix" values="0 0 0 0 0 0 0 0 0 0 0 0 0 0 0 0 0 0 127 0" result="hardAlpha"/>
<feOffset/>
<feGaussianBlur stdDeviation="41"/>
<feColorMatrix type="matrix" values="0 0 0 0 1 0 0 0 0 0 0 0 0 0 0.541176 0 0 0 1 0"/>
<feBlend mode="normal" in2="BackgroundImageFix" result="effect1_dropShadow"/>
<feBlend mode="normal" in="SourceGraphic" in2="effect1_dropShadow" result="shape"/>
</filter>
</defs>
</svg>
