<svg width="50" height="50" viewBox="0 0 50 50" fill="none" xmlns="http://www.w3.org/2000/svg">
<path d="M46.1357 3.86353C43.6459 1.37215 40.3336 0 36.8107 0C33.2874 0 29.9763 1.37215 27.4853 3.86353L15.6742 15.6742L3.86276 27.4864C1.37215 29.9778 0 33.2901 0 36.8122C0 40.3343 1.37215 43.6466 3.86276 46.1365C6.35262 48.6279 9.66492 50 13.1878 50C16.7107 50 20.0222 48.6279 22.5128 46.1365L34.3243 34.3258L46.1357 22.5136C48.6263 20.0222 49.9981 16.7099 49.9981 13.1878C49.9981 9.66568 48.6263 6.35338 46.1357 3.86353ZM20.0264 43.6501C18.1992 45.4769 15.7703 46.4836 13.1878 46.4836C10.6041 46.4836 8.17604 45.4773 6.34918 43.6501C4.52232 41.8228 3.51677 39.3951 3.51677 36.8126C3.51677 34.23 4.52309 31.8001 6.34918 29.9732L16.9174 19.4042L30.5946 33.083L20.0264 43.6501ZM43.6493 20.0272L33.0811 30.5962L19.4038 16.9174L29.9721 6.34995C31.7989 4.52309 34.2278 3.51639 36.8107 3.51639C39.394 3.51639 41.8221 4.52271 43.6489 6.34995C45.4758 8.17719 46.4813 10.6049 46.4813 13.1874C46.4813 15.77 45.4754 18.1999 43.6493 20.0272Z" fill="#8DFDFF"/>
</svg>
