<svg width="28" height="30" viewBox="0 0 28 30" fill="none" xmlns="http://www.w3.org/2000/svg">
<g filter="url(#filter0_d)">
<g filter="url(#filter1_d)">
<path d="M5 12.4885C5 12.1802 5.14215 11.8892 5.38526 11.6997L13.3665 5.47913C13.7279 5.19744 14.2346 5.19744 14.596 5.47913L22.5772 11.6997C22.8204 11.8892 22.9625 12.1802 22.9625 12.4885V23C22.9625 23.5304 22.7522 24.0391 22.3779 24.4142C22.0036 24.7893 21.496 25 20.9667 25H6.99583C6.46651 25 5.95886 24.7893 5.58457 24.4142C5.21027 24.0391 5 23.5304 5 23V12.4885Z" stroke="#FF58C5" stroke-width="2" stroke-linecap="round" stroke-linejoin="round"/>
</g>
<g filter="url(#filter2_d)">
<path d="M10.9875 25V15H16.9751V25" stroke="#FF58C5" stroke-width="2" stroke-linecap="round" stroke-linejoin="round"/>
</g>
</g>
<defs>
<filter id="filter0_d" x="1" y="1.26782" width="25.9624" height="27.7322" filterUnits="userSpaceOnUse" color-interpolation-filters="sRGB">
<feFlood flood-opacity="0" result="BackgroundImageFix"/>
<feColorMatrix in="SourceAlpha" type="matrix" values="0 0 0 0 0 0 0 0 0 0 0 0 0 0 0 0 0 0 127 0" result="hardAlpha"/>
<feOffset/>
<feGaussianBlur stdDeviation="1.5"/>
<feColorMatrix type="matrix" values="0 0 0 0 0.552941 0 0 0 0 0.992157 0 0 0 0 1 0 0 0 1 0"/>
<feBlend mode="normal" in2="BackgroundImageFix" result="effect1_dropShadow"/>
<feBlend mode="normal" in="SourceGraphic" in2="effect1_dropShadow" result="shape"/>
</filter>
<filter id="filter1_d" x="0" y="0.267822" width="27.9624" height="29.7322" filterUnits="userSpaceOnUse" color-interpolation-filters="sRGB">
<feFlood flood-opacity="0" result="BackgroundImageFix"/>
<feColorMatrix in="SourceAlpha" type="matrix" values="0 0 0 0 0 0 0 0 0 0 0 0 0 0 0 0 0 0 127 0" result="hardAlpha"/>
<feOffset/>
<feGaussianBlur stdDeviation="2"/>
<feColorMatrix type="matrix" values="0 0 0 0 1 0 0 0 0 0 0 0 0 0 0.54 0 0 0 1 0"/>
<feBlend mode="normal" in2="BackgroundImageFix" result="effect1_dropShadow"/>
<feBlend mode="normal" in="SourceGraphic" in2="effect1_dropShadow" result="shape"/>
</filter>
<filter id="filter2_d" x="5.98755" y="10" width="15.9875" height="20" filterUnits="userSpaceOnUse" color-interpolation-filters="sRGB">
<feFlood flood-opacity="0" result="BackgroundImageFix"/>
<feColorMatrix in="SourceAlpha" type="matrix" values="0 0 0 0 0 0 0 0 0 0 0 0 0 0 0 0 0 0 127 0" result="hardAlpha"/>
<feOffset/>
<feGaussianBlur stdDeviation="2"/>
<feColorMatrix type="matrix" values="0 0 0 0 1 0 0 0 0 0 0 0 0 0 0.54 0 0 0 1 0"/>
<feBlend mode="normal" in2="BackgroundImageFix" result="effect1_dropShadow"/>
<feBlend mode="normal" in="SourceGraphic" in2="effect1_dropShadow" result="shape"/>
</filter>
</defs>
</svg>
