<svg id="Warstwa_1" data-name="Warstwa 1" xmlns="http://www.w3.org/2000/svg" viewBox="0 0 36 36"><title>FAdoctor_icon2</title><rect x="0.5" y="0.5" width="35" height="35" rx="8.5" ry="8.5" fill="none;stroke:#ff58c5"/><path d="M15.36,35.69a0.47,0.47,0,0,0-.63.2,7.63,7.63,0,0,0-.83,3.44V41a0.47,0.47,0,0,0,.94,0V39.34a6.72,6.72,0,0,1,.72-3A0.46,0.46,0,0,0,15.36,35.69Z" transform="translate(-9.9 -7.5)" fill="#ff58c5"/><path d="M43.71,28.09a0.47,0.47,0,0,0-.66,0,0.47,0.47,0,0,0,0,.66,7,7,0,1,1-1.44-1.19,0.47,0.47,0,0,0,.49-0.8,8,8,0,0,0-11.66,3.95l-0.31-.15a0.92,0.92,0,0,0-.84,0l-0.1.07V28.95a6.58,6.58,0,0,0,2.33-3.6h0a2.15,2.15,0,0,0,1.21-3.93l1.13-4.55a3.19,3.19,0,0,0-2.77-3.94A5,5,0,0,0,26.36,9.5h-1.5a6.41,6.41,0,0,0-1.76.24,7.26,7.26,0,0,0-2.79,1.5,0.47,0.47,0,1,0,.61.71,6.37,6.37,0,0,1,2.44-1.31,5.42,5.42,0,0,1,1.5-.21h1.5a4,4,0,0,1,4,4,1.12,1.12,0,0,1-.18.62L30,15.37l-0.1-.06-1.39-.76a0.61,0.61,0,0,0-.72.1l-1,1a0.11,0.11,0,0,1-.08,0H22.27a2.61,2.61,0,0,0-2.6,2.61v2.77H19.56l-0.68-2.72a6.38,6.38,0,0,1,.82-5,0.46,0.46,0,0,0-.14-0.65,0.47,0.47,0,0,0-.65.14A7.27,7.27,0,0,0,18,18.57l0.7,2.85a2.15,2.15,0,0,0,1.17,3.93A6.58,6.58,0,0,0,22.19,29v1.58a0.9,0.9,0,0,0-.81,0l-2.29,1.13a0.9,0.9,0,0,0-.5.68A7.46,7.46,0,0,0,16.06,34a0.47,0.47,0,0,0,.67.65,6.55,6.55,0,0,1,1.9-1.35L18.86,37a0.47,0.47,0,0,0,.36.43l1,0.24L21,41.13a0.47,0.47,0,0,0,.45.37h0.1a0.46,0.46,0,0,0,.36-0.56L21,37.22a0.45,0.45,0,0,0-.34-0.35l-0.93-.23L19.51,32.5l2.25-1.1,1.14,9.68a0.47,0.47,0,0,0,.52.41A0.47,0.47,0,0,0,23.83,41l-0.77-6.51a5.72,5.72,0,0,0,5.36,0L27.65,41a0.47,0.47,0,0,0,.41.52h0.06a0.47,0.47,0,0,0,.46-0.41l1.14-9.68,0.4,0.2a8.15,8.15,0,0,0-.23,1.93,7.9,7.9,0,0,0,.76,3.4,0.47,0.47,0,0,0-.22.3l-0.81,3.71a0.46,0.46,0,0,0,.35.56h0.1a0.47,0.47,0,0,0,.46-0.37l0.7-3.18A8,8,0,1,0,43.71,28.09ZM31.65,24.4q0-.31,0-0.62V22A1.21,1.21,0,0,1,31.65,24.4Zm0.87-9.68a2.23,2.23,0,0,1,.42,1.93l-1.09,4.42-0.17,0V18.28A3.36,3.36,0,0,0,30.76,16L31,15.58a2.09,2.09,0,0,0,.32-1.11,5,5,0,0,0,0-.55A2.19,2.19,0,0,1,32.52,14.72ZM18.67,23.19a1.22,1.22,0,0,1,1-1.19v1.8c0,0.2,0,.4,0,0.59A1.22,1.22,0,0,1,18.67,23.19ZM20.6,23.8V18.28a1.67,1.67,0,0,1,1.67-1.67h4.47a1,1,0,0,0,.74-0.31l0.82-.82,1.17,0.64a2.46,2.46,0,0,1,1.28,2.16v5.5A5.62,5.62,0,0,1,27,29.07l0,0a4,4,0,0,1-2.65,0A5.62,5.62,0,0,1,20.6,23.8Zm2.32,9.47-0.19-1.61h0a0.6,0.6,0,0,0,.38-0.56V29.58A6.79,6.79,0,0,0,24,30a4.89,4.89,0,0,0,3.28,0l0.05,0a6.23,6.23,0,0,0,.89-0.4V31.1a0.61,0.61,0,0,0,.37.56l0.15,0.06-0.18,1.56A4.8,4.8,0,0,1,22.92,33.27Z" transform="translate(-9.9 -7.5)" fill="#ff58c5"/><path d="M25.27,21.08H26a2.1,2.1,0,1,0,.22-0.94H25.05A2.1,2.1,0,1,0,25.27,21.08Zm2.83-1.16a1.16,1.16,0,1,1-1.16,1.16A1.16,1.16,0,0,1,28.1,19.91ZM22,21.08a1.16,1.16,0,1,1,1.16,1.16A1.16,1.16,0,0,1,22,21.08Z" transform="translate(-9.9 -7.5)" fill="#ff58c5"/><path d="M38.5,29.37l-4.78,4.78a2.49,2.49,0,0,0,0,3.51,2.48,2.48,0,0,0,3.51,0L42,32.89A2.48,2.48,0,0,0,38.5,29.37ZM36.57,37a1.55,1.55,0,0,1-2.19,0,1.56,1.56,0,0,1,0-2.19l2.06-2.06,2.19,2.19Zm4.78-4.78-2.06,2.06L37.1,32.1,39.16,30A1.55,1.55,0,1,1,41.35,32.23Z" transform="translate(-9.9 -7.5)" fill="#ff58c5"/></svg>