<?xml version="1.0" encoding="utf-8"?>
<!-- Generator: Adobe Illustrator 19.2.0, SVG Export Plug-In . SVG Version: 6.00 Build 0)  -->
<svg version="1.1" id="Warstwa_1" xmlns="http://www.w3.org/2000/svg" xmlns:xlink="http://www.w3.org/1999/xlink" x="0px" y="0px"
	 viewBox="0 0 690 682" style="enable-background:new 0 0 690 682;" xml:space="preserve">
<style type="text/css">
	.st0{fill:none;stroke:#FF58C5;stroke-width:18;}
	.st1{fill:#FF58C5;}
</style>
<g>
	<g>
		<path class="st0" d="M182.2,24.5h324c84.5,0,153,68.5,153,153v324c0,84.5-68.5,153-153,153h-324c-84.5,0-153-68.5-153-153v-324
			C29.2,93,97.7,24.5,182.2,24.5z"/>
	</g>
	<g>
		<path class="st1" d="M118.4,523c-4.1-2.1-9.2-0.5-11.3,3.7c-9.7,19.1-14.9,40.5-14.9,61.9v30.3c0,4.7,3.8,8.4,8.5,8.4
			s8.5-3.8,8.5-8.4v-30.3c0-18.8,4.5-37.5,13-54.3C124.2,530.2,122.6,525.1,118.4,523z"/>
	</g>
	<g>
		<path class="st1" d="M628.7,386.1c-3.2-3.4-8.6-3.6-11.9-0.4c-3.4,3.2-3.6,8.5-0.5,11.9c22,23.5,34,54.2,34,86.3
			c0,69.9-56.9,126.8-126.7,126.8c-70,0-126.9-56.9-126.9-126.8s56.9-126.8,126.9-126.8c23.6,0,46.6,6.6,66.8,19
			c4,2.5,9.2,1.2,11.5-2.7c2.5-4,1.3-9.1-2.7-11.6c-22.7-14.1-48.8-21.6-75.6-21.6c-61.4,0-113.8,38.5-134.3,92.7l-5.6-2.7
			c-4.7-2.4-10.4-2.2-15.1,0.3c-0.5,0.4-1.3,0.8-1.8,1.2v-30.2c20.7-16.2,35.6-39.1,41.9-64.9h0.4c21.4,0,38.7-17.4,38.7-38.7
			c0-13.3-6.7-25-16.9-32l20.3-81.9c4.1-17.2,0.4-35.2-10.6-49.2c-9.7-12.4-23.8-20.1-39.2-21.7c-11.7-35.8-45.4-61.8-85-61.8h-27
			c-10.8,0-21.4,1.5-31.7,4.4c-18.7,5.3-35.6,14.4-50.2,27c-3.4,3-4,8.4-0.9,11.9s8.5,3.9,11.9,0.9c12.8-11,27.5-18.9,43.9-23.5
			c8.6-2.5,17.8-3.8,27-3.8h27c40,0,72.5,32.6,72.5,72.6c0,3.9-1.1,7.8-3.2,11.1l-3.2,5.1c-0.5-0.4-1.3-0.7-1.8-1.1l-25-13.8
			c-4.3-2.3-9.5-1.6-13,1.8l-18,17.9c-0.4,0.4-0.9,0.6-1.4,0.6h-80.5c-25.7,0-46.8,21.1-46.8,47v49.9c-0.7,0.1-1.4,0.2-2,0.3
			l-12.2-49c-7.6-30.9-2.3-62.8,14.8-89.7c2.5-3.9,1.4-9.1-2.5-11.6c-4-2.5-9.2-1.3-11.7,2.6c-19.6,30.8-25.6,67.3-16.7,102.8
			l12.6,51.3c-10.3,7-16.9,18.7-16.9,32c0,21.1,16.9,38.3,38,38.7c6.3,25.9,21.2,48.9,42.1,65.2v28.5c-4.5-2.3-10.1-2.4-14.6-0.1
			l-41.2,20.3c-4.9,2.4-8.3,7-9,12.2c-17.3,7.1-32.6,17.4-45.5,30.6c-3.2,3.3-3.2,8.7,0.2,11.9c1.6,1.6,3.8,2.4,5.8,2.4
			c2.3,0,4.5-0.8,6.1-2.5c9.9-10.1,21.4-18.3,34.2-24.3l4.1,66.5c0.2,3.7,2.9,6.8,6.5,7.7l17.5,4.3l13.7,61.7
			c0.9,3.9,4.3,6.6,8.1,6.6c0.7,0,1.3-0.1,1.8-0.2c4.7-1,7.6-5.5,6.5-10l-14.8-66.8c-0.5-3.1-3.1-5.6-6.1-6.4l-16.7-4.1l-4.7-74.5
			l40.5-19.9l20.5,174.2c0.5,4.6,4.7,7.9,9.4,7.4c4.5-0.5,7.9-4.7,7.4-9.3L257,500.7c15.1,8,31.7,12,48.2,12c16.6,0,33.1-4,48.2-12
			l-13.9,117.2c-0.5,4.6,2.9,8.8,7.4,9.3c0.4,0,0.7,0.1,1.1,0.1c4.1,0,7.7-3.2,8.3-7.4l20.5-174.2l7.2,3.6
			c-2.7,11.1-4.1,22.7-4.1,34.7c0,21.9,4.9,42.6,13.7,61.2c-2,1.2-3.4,3.1-4,5.4l-14.6,66.8c-1.1,4.5,1.8,9,6.3,10
			c0.7,0.1,1.3,0.2,1.8,0.2c4,0,7.4-2.7,8.3-6.6l12.6-57.3c25.7,38.5,69.7,63.9,119.5,63.9c79,0,143.5-64.4,143.5-143.6
			C667.1,447.5,653.4,412.8,628.7,386.1z M411.7,319.7c0.4-3.7,0.5-7.4,0.5-11.1v-32.2c10.6,1.5,18.9,10.6,18.9,21.6
			C431.1,309.2,422.6,318.4,411.7,319.7z M427.3,145.4c7.7,9.9,10.6,22.5,7.6,34.7l-19.6,79.6c-1.1-0.1-2-0.3-3.1-0.3v-49.8
			c0-15.8-5.9-30.7-16.6-41.8l4.3-6.8c3.8-6,5.8-13,5.8-20.1c0-3.3-0.2-6.6-0.5-9.9C414,133.2,421.7,138.1,427.3,145.4z M178,298
			c0-10.7,7.7-19.6,18-21.5v32.4c0,3.6,0.2,7.1,0.4,10.6C186.1,317.8,178,308.8,178,298z M212.8,308.9v-99.3
			c0-16.6,13.5-30.1,30.1-30.1h80.5c5,0,9.9-2,13.3-5.5l14.8-14.8l21.1,11.6c14.2,7.8,23,22.7,23,38.8v99c0,42.7-27,80.9-67.3,95.2
			l-0.7,0.3c-15.5,5.5-32.4,5.4-47.7-0.1C239.6,389.6,212.8,351.4,212.8,308.9z M254.5,479.3l-3.4-28.9l0.4-0.1
			c4.1-1.7,6.8-5.6,6.8-10v-27.4c5,2.7,10.3,5,15.7,7c9.5,3.4,19.6,5.2,29.7,5.2c9.9,0,19.8-1.7,29.3-5l0.9-0.3c5.6-2,11-4.4,16-7.1
			v27.7c0,4.4,2.7,8.3,6.7,10l2.7,1l-3.2,28C325.6,501.3,284.9,501.3,254.5,479.3z"/>
	</g>
	<g>
		<path class="st1" d="M296.8,259.9H310c0,20.8,16.9,37.7,37.8,37.7c20.9,0,37.8-16.9,37.8-37.8c0-20.8-16.9-37.8-37.8-37.8
			c-14.8,0-27.5,8.6-33.8,21h-21.1c-6.3-12.4-19.1-21-33.8-21c-20.9,0-37.8,16.9-37.8,37.8c0,20.8,16.9,37.8,37.8,37.8
			S296.8,280.7,296.8,259.9z M347.8,239c11.5,0,20.9,9.4,20.9,20.9c0,11.5-9.4,20.9-20.9,20.9c-11.5,0-20.9-9.4-20.9-20.9
			C326.9,248.3,336.2,239,347.8,239z M238.1,259.9c0-11.5,9.4-20.9,20.9-20.9s20.9,9.4,20.9,20.9c0,11.5-9.4,20.9-20.9,20.9
			S238.1,271.4,238.1,259.9z"/>
	</g>
	<g>
		<path class="st1" d="M535,409.2l-86,86.1c-17.5,17.4-17.5,45.8,0,63.3c8.5,8.4,19.6,13.1,31.5,13.1c12.1,0,23.2-4.7,31.7-13.1
			l86-86.1c17.5-17.4,17.5-45.8,0-63.3C580.9,391.8,552.4,391.8,535,409.2z M500.2,546.6c-5.2,5.3-12.2,8.2-19.8,8.2
			c-7.4,0-14.4-2.9-19.6-8.2c-10.8-10.9-10.8-28.6,0-39.4l37.1-37.1l39.4,39.4L500.2,546.6z M586.3,460.6l-37.1,37.1l-39.4-39.4
			l37.1-37.1c5.4-5.4,12.6-8.2,19.8-8.2c7,0,14.2,2.7,19.6,8.2c5.2,5.3,8.3,12.3,8.3,19.7S591.5,455.3,586.3,460.6z"/>
	</g>
</g>
</svg>
