<?xml version="1.0" encoding="utf-8"?>
<!-- Generator: Adobe Illustrator 19.2.0, SVG Export Plug-In . SVG Version: 6.00 Build 0)  -->
<svg version="1.1" id="Warstwa_1" xmlns="http://www.w3.org/2000/svg" xmlns:xlink="http://www.w3.org/1999/xlink" x="0px" y="0px"
	 viewBox="0 0 55 51" style="enable-background:new 0 0 55 51;" xml:space="preserve">
<style type="text/css">
	.st0{fill:none;stroke:#FF58C5;}
	.st1{fill:#FF58C5;}
</style>
<g>
	<g>
		<path class="st0" d="M18.9,8h18c4.7,0,8.5,3.8,8.5,8.5v18c0,4.7-3.8,8.5-8.5,8.5h-18c-4.7,0-8.5-3.8-8.5-8.5v-18
			C10.4,11.8,14.2,8,18.9,8z"/>
	</g>
	<g>
		<path class="st1" d="M15.4,35.7c-0.2-0.1-0.5,0-0.6,0.2c-0.5,1.1-0.8,2.3-0.8,3.4V41c0,0.3,0.2,0.5,0.5,0.5s0.5-0.2,0.5-0.5v-1.7
			c0-1,0.2-2.1,0.7-3C15.7,36.1,15.6,35.8,15.4,35.7z"/>
	</g>
	<g>
		<path class="st1" d="M43.7,28.1c-0.2-0.2-0.5-0.2-0.7,0c-0.2,0.2-0.2,0.5,0,0.7c1.2,1.3,1.9,3,1.9,4.8c0,3.9-3.2,7-7,7
			c-3.9,0-7-3.2-7-7s3.2-7,7-7c1.3,0,2.6,0.4,3.7,1.1c0.2,0.1,0.5,0.1,0.6-0.2c0.1-0.2,0.1-0.5-0.1-0.6c-1.3-0.8-2.7-1.2-4.2-1.2
			c-3.4,0-6.3,2.1-7.5,5.1l-0.3-0.2c-0.3-0.1-0.6-0.1-0.8,0c0,0-0.1,0-0.1,0.1v-1.7c1.2-0.9,2-2.2,2.3-3.6h0c1.2,0,2.2-1,2.2-2.2
			c0-0.7-0.4-1.4-0.9-1.8l1.1-4.5c0.2-1,0-2-0.6-2.7c-0.5-0.7-1.3-1.1-2.2-1.2c-0.7-2-2.5-3.4-4.7-3.4h-1.5c-0.6,0-1.2,0.1-1.8,0.2
			c-1,0.3-2,0.8-2.8,1.5c-0.2,0.2-0.2,0.5-0.1,0.7s0.5,0.2,0.7,0c0.7-0.6,1.5-1.1,2.4-1.3c0.5-0.1,1-0.2,1.5-0.2h1.5
			c2.2,0,4,1.8,4,4c0,0.2-0.1,0.4-0.2,0.6L30,15.4c0,0-0.1,0-0.1-0.1l-1.4-0.8c-0.2-0.1-0.5-0.1-0.7,0.1l-1,1c0,0-0.1,0-0.1,0h-4.5
			c-1.4,0-2.6,1.2-2.6,2.6v2.8c0,0-0.1,0-0.1,0l-0.7-2.7c-0.4-1.7-0.1-3.5,0.8-5c0.1-0.2,0.1-0.5-0.1-0.6c-0.2-0.1-0.5-0.1-0.7,0.1
			c-1.1,1.7-1.4,3.7-0.9,5.7l0.7,2.8c-0.6,0.4-0.9,1-0.9,1.8c0,1.2,0.9,2.1,2.1,2.2c0.4,1.4,1.2,2.7,2.3,3.6v1.6
			c-0.2-0.1-0.6-0.1-0.8,0l-2.3,1.1c-0.3,0.1-0.5,0.4-0.5,0.7c-1,0.4-1.8,1-2.5,1.7c-0.2,0.2-0.2,0.5,0,0.7c0.1,0.1,0.2,0.1,0.3,0.1
			c0.1,0,0.2,0,0.3-0.1c0.6-0.6,1.2-1,1.9-1.4l0.2,3.7c0,0.2,0.2,0.4,0.4,0.4l1,0.2l0.8,3.4c0,0.2,0.2,0.4,0.4,0.4c0,0,0.1,0,0.1,0
			c0.3-0.1,0.4-0.3,0.4-0.6L21,37.2c0-0.2-0.2-0.3-0.3-0.4l-0.9-0.2l-0.3-4.1l2.2-1.1l1.1,9.7c0,0.3,0.3,0.4,0.5,0.4
			c0.2,0,0.4-0.3,0.4-0.5l-0.8-6.5c0.8,0.4,1.8,0.7,2.7,0.7c0.9,0,1.8-0.2,2.7-0.7L27.7,41c0,0.3,0.2,0.5,0.4,0.5c0,0,0,0,0.1,0
			c0.2,0,0.4-0.2,0.5-0.4l1.1-9.7l0.4,0.2c-0.2,0.6-0.2,1.3-0.2,1.9c0,1.2,0.3,2.4,0.8,3.4c-0.1,0.1-0.2,0.2-0.2,0.3l-0.8,3.7
			c-0.1,0.3,0.1,0.5,0.3,0.6c0,0,0.1,0,0.1,0c0.2,0,0.4-0.1,0.5-0.4l0.7-3.2c1.4,2.1,3.9,3.6,6.6,3.6c4.4,0,8-3.6,8-8
			C45.8,31.5,45.1,29.6,43.7,28.1z M31.7,24.4c0-0.2,0-0.4,0-0.6V22c0.6,0.1,1,0.6,1,1.2C32.7,23.8,32.3,24.3,31.7,24.4z M32.5,14.7
			c0.4,0.5,0.6,1.3,0.4,1.9l-1.1,4.4c-0.1,0-0.1,0-0.2,0v-2.8c0-0.9-0.3-1.7-0.9-2.3l0.2-0.4c0.2-0.3,0.3-0.7,0.3-1.1
			c0-0.2,0-0.4,0-0.6C31.8,14,32.2,14.3,32.5,14.7z M18.7,23.2c0-0.6,0.4-1.1,1-1.2v1.8c0,0.2,0,0.4,0,0.6
			C19.1,24.3,18.7,23.8,18.7,23.2z M20.6,23.8v-5.5c0-0.9,0.8-1.7,1.7-1.7h4.5c0.3,0,0.6-0.1,0.7-0.3l0.8-0.8l1.2,0.6
			c0.8,0.4,1.3,1.3,1.3,2.2v5.5c0,2.4-1.5,4.5-3.7,5.3l0,0c-0.9,0.3-1.8,0.3-2.6,0C22.1,28.3,20.6,26.2,20.6,23.8z M22.9,33.3
			l-0.2-1.6l0,0c0.2-0.1,0.4-0.3,0.4-0.6v-1.5c0.3,0.1,0.6,0.3,0.9,0.4c0.5,0.2,1.1,0.3,1.7,0.3c0.6,0,1.1-0.1,1.6-0.3l0.1,0
			c0.3-0.1,0.6-0.2,0.9-0.4v1.5c0,0.2,0.2,0.5,0.4,0.6l0.2,0.1l-0.2,1.6C26.9,34.5,24.6,34.5,22.9,33.3z"/>
	</g>
	<g>
		<path class="st1" d="M25.3,21.1H26c0,1.2,0.9,2.1,2.1,2.1c1.2,0,2.1-0.9,2.1-2.1S29.3,19,28.1,19c-0.8,0-1.5,0.5-1.9,1.2h-1.2
			C24.7,19.5,24,19,23.2,19c-1.2,0-2.1,0.9-2.1,2.1s0.9,2.1,2.1,2.1S25.3,22.2,25.3,21.1z M28.1,19.9c0.6,0,1.2,0.5,1.2,1.2
			c0,0.6-0.5,1.2-1.2,1.2c-0.6,0-1.2-0.5-1.2-1.2C26.9,20.4,27.5,19.9,28.1,19.9z M22,21.1c0-0.6,0.5-1.2,1.2-1.2s1.2,0.5,1.2,1.2
			c0,0.6-0.5,1.2-1.2,1.2S22,21.7,22,21.1z"/>
	</g>
	<g>
		<path class="st1" d="M38.5,29.4l-4.8,4.8c-1,1-1,2.5,0,3.5c0.5,0.5,1.1,0.7,1.8,0.7c0.7,0,1.3-0.3,1.8-0.7l4.8-4.8
			c1-1,1-2.5,0-3.5C41.1,28.4,39.5,28.4,38.5,29.4z M36.6,37c-0.3,0.3-0.7,0.5-1.1,0.5c-0.4,0-0.8-0.2-1.1-0.5
			c-0.6-0.6-0.6-1.6,0-2.2l2.1-2.1l2.2,2.2L36.6,37z M41.4,32.2l-2.1,2.1l-2.2-2.2l2.1-2.1c0.3-0.3,0.7-0.5,1.1-0.5
			c0.4,0,0.8,0.2,1.1,0.5c0.3,0.3,0.5,0.7,0.5,1.1C41.8,31.5,41.6,31.9,41.4,32.2z"/>
	</g>
</g>
</svg>
