<?xml version="1.0" encoding="utf-8"?>
<!-- Generator: Adobe Illustrator 19.2.0, SVG Export Plug-In . SVG Version: 6.00 Build 0)  -->
<svg version="1.1" id="Warstwa_1" xmlns="http://www.w3.org/2000/svg" xmlns:xlink="http://www.w3.org/1999/xlink" x="0px" y="0px"
	 viewBox="0 0 62 64" style="enable-background:new 0 0 62 64;" xml:space="preserve">
<style type="text/css">
	.st0{fill:#B7308D;}
	.st1{display:none;}
	.st2{display:inline;fill:none;}
</style>
<g>
	<g>
		<path class="st0" d="M33.4,5.4c-4.6,0-8.5,3.5-8.9,8.2l0,0l-0.8,9.2l-0.3,3.3l-1.5-2.5l-2.8-4.7l0,0c-1.3-2.2-3.7-3.5-6.2-3.5
			c-1.3,0-2.6,0.4-3.7,1c0,0,0,0,0,0c-3.4,2-4.5,6.5-2.5,9.9c0,0,0,0,0,0l7.8,13.2l0,0c1.3,2.2,3.7,3.5,6.2,3.5c0.4,0,0.8,0,1.2-0.1
			c0.7-0.1,1.4-0.4,2.1-0.7c0.1-0.1,0.2-0.1,0.3-0.2c0,0,0,0,0,0c0.1-0.1,0.2-0.1,0.3-0.2c0.2-0.1,0.4-0.3,0.5-0.4
			c0.1-0.1,0.3-0.2,0.4-0.4c0.1,0.1,0.2,0.2,0.3,0.3c0.4,0.3,0.8,0.6,1.3,0.9c0.1,0.1,0.3,0.1,0.4,0.2l-0.8,0.7c0,0,0,0,0,0
			c-0.2,0.2-0.4,0.4-0.6,0.7c-0.2,0.2-0.3,0.4-0.4,0.6l0,0c-0.3,0.4-0.5,0.8-0.7,1.2c-0.1,0.2-0.2,0.5-0.3,0.7
			c-1.3,3.2-0.7,7,1.8,9.6c0,0,0,0,0,0c1.7,1.8,4,2.8,6.5,2.8c2.3,0,4.5-0.9,6.2-2.5l0,0l14.2-13.7c0,0,0,0,0,0
			c1.7-1.7,2.7-3.9,2.8-6.3c0.1-2.4-0.8-4.7-2.5-6.4c0,0,0,0,0,0c-1.7-1.8-4-2.8-6.5-2.8c-0.7,0-1.4,0.1-2.1,0.2
			c-0.7,0.2-1.5,0.5-2.1,0.8c-0.5,0.3-1,0.6-1.5,1c-0.2,0.1-0.3,0.3-0.5,0.4l0,0L41,29.4l0-0.2l0,0l1.3-14l0,0l0,0
			c0.5-5-3.2-9.4-8.1-9.8l0,0C33.9,5.4,33.7,5.4,33.4,5.4L33.4,5.4z M25.7,22.5l0.8-8.8l0,0c0.3-3.6,3.4-6.3,6.9-6.3
			c0.2,0,0.4,0,0.6,0l0,0l0,0c3.7,0.4,6.5,3.7,6.2,7.4l0,0c0,0,0,0.1,0,0.1l0,0l-0.8,8.8c-0.6-0.2-1.2-0.4-1.9-0.6
			c-0.2-0.1-0.5-0.1-0.7-0.2l0,0c-0.1,0-0.2,0-0.2,0c-0.4,0-0.7,0.2-0.9,0.5c-0.1,0.1-0.1,0.2-0.1,0.3c-0.1,0.6,0.2,1.1,0.7,1.3l0,0
			c0.3,0.1,0.7,0.2,1,0.3c0.5,0.1,0.9,0.3,1.3,0.5c0.1,0,0.2,0.1,0.2,0.1c0,0,0,0,0,0c0.1,0,0.2,0.1,0.3,0.1l-0.5,5.7l-9.5,9.1
			c-0.2-0.1-0.5-0.2-0.7-0.3c0,0,0,0,0,0c-0.4-0.2-0.7-0.4-1-0.6c-0.2-0.1-0.3-0.2-0.5-0.4c0,0-0.1-0.1-0.1-0.1
			c0.1-0.2,0.2-0.4,0.3-0.7c0.2-0.4,0.3-0.8,0.4-1.2c0.1-0.3,0.1-0.5,0.1-0.8c0.2-1.5-0.1-3.1-1-4.5c0,0,0,0,0,0l-1.8-3l0.3-3.3
			l0.1-1.1c0.1,0,0.1,0,0.2,0c0.1,0,0.1,0,0.2,0c0.1,0,0.2,0,0.3,0c0.5-0.1,0.9-0.1,1.4-0.2c0.3,0,0.7-0.1,1-0.1c0,0,0,0,0,0l0,0
			c0.6,0,1-0.5,1-1.1c0-0.1,0-0.2-0.1-0.3c-0.2-0.4-0.5-0.6-1-0.6c0,0,0,0-0.1,0l0,0c-0.2,0-0.5,0-0.7,0.1c-0.6,0.1-1.2,0.1-1.8,0.2
			C25.8,22.5,25.8,22.5,25.7,22.5L25.7,22.5z M11.8,30.8l-3.3-5.6c-1.4-2.4-0.6-5.6,1.8-7.1c0,0,0,0,0,0c0.8-0.5,1.7-0.7,2.6-0.7
			c1.8,0,3.5,1,4.4,2.5c0,0,0,0,0,0l3.3,5.6c-0.2,0.1-0.5,0.1-0.7,0.2c-0.4,0.1-0.7,0.3-1.1,0.4c-0.6,0.3-1.2,0.6-1.9,0.9
			c-0.3,0.2-0.7,0.4-1,0.6c0,0,0,0,0,0c-0.3,0.2-0.6,0.4-0.9,0.6c-0.6,0.4-1.2,0.8-1.7,1.2C12.7,29.9,12.2,30.3,11.8,30.8L11.8,30.8
			z M20.7,40.9c-1.8,0-3.5-1-4.4-2.5c0,0,0,0,0,0l-3.4-5.8c0.1-0.1,0.2-0.3,0.4-0.4c0.3-0.3,0.7-0.7,1.1-1c0.8-0.7,1.7-1.3,2.6-1.9
			c0,0,0,0,0,0c0.9-0.6,1.9-1,2.9-1.4c0.2-0.1,0.5-0.2,0.7-0.3c0.2-0.1,0.4-0.2,0.7-0.2c0,0,0,0,0.1,0c0.1,0,0.3-0.1,0.4-0.1
			l3.4,5.8l0,0c0.5,0.8,0.7,1.7,0.7,2.7c0,0.6-0.1,1.2-0.3,1.8c-0.1,0.3-0.2,0.5-0.4,0.8c-0.1,0.2-0.2,0.3-0.3,0.5c0,0,0,0,0,0.1
			c-0.2,0.2-0.3,0.4-0.6,0.6c-0.3,0.3-0.6,0.5-0.9,0.7c0,0,0,0,0,0c-0.3,0.2-0.6,0.3-0.9,0.4C21.9,40.8,21.3,40.9,20.7,40.9
			L20.7,40.9z M45.8,47c-0.3-0.6-0.6-1.1-1-1.7c-0.4-0.6-0.8-1.1-1.2-1.7c-0.6-0.8-1.2-1.5-1.9-2.2c0,0,0,0,0,0
			c-0.7-0.7-1.4-1.4-2.1-2c-0.5-0.5-1.1-0.9-1.6-1.3l0,0c-0.5-0.4-1-0.7-1.5-1c0,0-0.1,0-0.1,0l6.3-6.1c0,0,0,0,0,0l0,0
			c0.1-0.1,0.2-0.2,0.3-0.3c0.4-0.3,0.8-0.6,1.2-0.8c0.3-0.2,0.6-0.3,0.9-0.4c0.7-0.3,1.5-0.4,2.3-0.4c1.9,0,3.7,0.8,5,2.1
			c0,0,0,0,0,0c1.3,1.3,1.9,3.1,1.9,5c0,1.9-0.8,3.6-2.1,4.9l0,0L45.8,47L45.8,47z M33.1,56.5c-1.9,0-3.7-0.8-5-2.1c0,0,0,0,0,0
			c-2.6-2.8-2.5-7.1,0.2-9.8c0,0,0,0,0.1-0.1l6.4-6.1c0.2,0.1,0.3,0.2,0.5,0.3c0.3,0.2,0.6,0.4,0.9,0.6c0.1,0.1,0.2,0.1,0.2,0.2l0,0
			c1.3,0.9,2.6,2,3.8,3.3c0,0,0,0,0,0c1.2,1.3,2.3,2.6,3.1,4c0.3,0.4,0.5,0.8,0.7,1.2c0.1,0.2,0.2,0.3,0.3,0.5l-6.4,6.1c0,0,0,0,0,0
			C36.5,55.9,34.9,56.5,33.1,56.5L33.1,56.5z"/>
	</g>
	<g class="st1">
		<path class="st2" d="M43.3,46.7c-0.8-1.3-1.9-2.7-3.1-4c0,0,0,0,0,0c-1.2-1.3-2.5-2.4-3.8-3.3l0,0c-0.1-0.1-0.2-0.1-0.2-0.2
			c-0.3-0.2-0.6-0.4-0.9-0.6c-0.2-0.1-0.3-0.2-0.5-0.3l-6.4,6.1c0,0,0,0-0.1,0.1c-2.7,2.7-2.8,7-0.2,9.8c0,0,0,0,0,0
			c1.3,1.4,3.1,2.1,5,2.1c1.8,0,3.5-0.7,4.8-1.9c0,0,0,0,0,0l6.4-6.1c-0.1-0.2-0.2-0.3-0.3-0.5C43.7,47.6,43.5,47.2,43.3,46.7z"/>
		<path class="st2" d="M28.6,40.5c0.2,0.1,0.5,0.2,0.7,0.3l9.5-9.1l0.5-5.7c-0.1,0-0.2-0.1-0.3-0.1c0,0,0,0,0,0
			c-0.1,0-0.2-0.1-0.2-0.1c-0.4-0.2-0.9-0.3-1.3-0.5c-0.3-0.1-0.7-0.2-1-0.3l0,0c-0.5-0.1-0.9-0.7-0.7-1.3c0-0.1,0.1-0.2,0.1-0.3
			c0.2-0.4,0.7-0.6,1.1-0.5l0,0c0.2,0.1,0.5,0.1,0.7,0.2c0.7,0.2,1.3,0.4,1.9,0.6l0.8-8.8l0,0c0,0,0-0.1,0-0.1l0,0
			c0.3-3.8-2.5-7.1-6.2-7.4l0,0l0,0c-3.8-0.4-7.2,2.5-7.5,6.3l0,0l-0.8,8.8c0,0,0.1,0,0.1,0c0.6-0.1,1.2-0.2,1.8-0.2
			c0.2,0,0.5,0,0.7-0.1l0,0c0.5,0,0.9,0.2,1,0.6c0,0.1,0.1,0.2,0.1,0.3c0,0.6-0.4,1.1-1,1.1l0,0c0,0,0,0,0,0c-0.3,0-0.7,0-1,0.1
			c-0.5,0.1-1,0.1-1.4,0.2c-0.1,0-0.2,0-0.3,0c-0.1,0-0.1,0-0.2,0c-0.1,0-0.1,0-0.2,0l-0.1,1.1l-0.3,3.3l1.8,3c0,0,0,0,0,0
			c0.8,1.4,1.1,3,1,4.5c0,0.3-0.1,0.6-0.1,0.8c-0.1,0.4-0.2,0.8-0.4,1.2c-0.1,0.2-0.2,0.4-0.3,0.7c0,0,0.1,0.1,0.1,0.1
			c0.1,0.1,0.3,0.3,0.5,0.4C27.8,40,28.2,40.3,28.6,40.5C28.5,40.4,28.5,40.4,28.6,40.5z"/>
		<path class="st2" d="M25.1,33.1l-3.4-5.8c-0.1,0-0.3,0.1-0.4,0.1c0,0,0,0-0.1,0c-0.2,0.1-0.4,0.1-0.7,0.2
			c-0.2,0.1-0.5,0.2-0.7,0.3c-0.9,0.4-1.9,0.9-2.9,1.4c0,0,0,0,0,0c-0.9,0.6-1.8,1.2-2.6,1.9c-0.4,0.3-0.7,0.6-1.1,1
			c-0.1,0.1-0.3,0.3-0.4,0.4l3.4,5.8c0,0,0,0,0,0c0.9,1.5,2.6,2.5,4.4,2.5c0.6,0,1.2-0.1,1.7-0.3c0.3-0.1,0.6-0.3,0.9-0.4
			c0,0,0,0,0,0c0.3-0.2,0.6-0.4,0.9-0.7c0.2-0.2,0.4-0.4,0.6-0.6c0,0,0,0,0-0.1c0.1-0.2,0.2-0.3,0.3-0.5c0.1-0.2,0.3-0.5,0.4-0.8
			c0.2-0.6,0.3-1.2,0.3-1.8C25.8,34.9,25.6,33.9,25.1,33.1L25.1,33.1z"/>
		<path class="st2" d="M14.9,28.2c0.3-0.2,0.6-0.4,0.9-0.6c0,0,0,0,0,0c0.3-0.2,0.7-0.4,1-0.6c0.6-0.3,1.3-0.6,1.9-0.9
			c0.4-0.2,0.8-0.3,1.1-0.4c0.2-0.1,0.5-0.2,0.7-0.2l-3.3-5.6c0,0,0,0,0,0c-0.9-1.5-2.6-2.5-4.4-2.5c-0.9,0-1.8,0.2-2.6,0.7
			c0,0,0,0,0,0c-2.4,1.5-3.2,4.6-1.8,7.1l3.3,5.6c0.4-0.4,0.9-0.9,1.5-1.3C13.8,29,14.3,28.6,14.9,28.2z"/>
		<path class="st2" d="M52.3,31.1C52.3,31.1,52.3,31.1,52.3,31.1c-1.3-1.4-3.1-2.1-5-2.1c-0.8,0-1.6,0.1-2.3,0.4
			c-0.3,0.1-0.6,0.3-0.9,0.4c-0.4,0.2-0.9,0.5-1.2,0.8c-0.1,0.1-0.2,0.2-0.3,0.3l0,0c0,0,0,0,0,0l-6.3,6.1c0,0,0.1,0,0.1,0
			c0.5,0.3,1,0.7,1.5,1l0,0c0.5,0.4,1.1,0.8,1.6,1.3c0.7,0.6,1.4,1.3,2.1,2c0,0,0,0,0,0c0.7,0.7,1.3,1.5,1.9,2.2
			c0.4,0.6,0.8,1.1,1.2,1.7c0.4,0.6,0.7,1.1,1,1.7l6.3-6.1l0,0c1.3-1.3,2.1-3,2.1-4.9C54.3,34.2,53.6,32.4,52.3,31.1z"/>
	</g>
</g>
</svg>
