<?xml version="1.0" encoding="utf-8"?>
<!-- Generator: Adobe Illustrator 19.2.0, SVG Export Plug-In . SVG Version: 6.00 Build 0)  -->
<svg version="1.1" id="Warstwa_1" xmlns="http://www.w3.org/2000/svg" xmlns:xlink="http://www.w3.org/1999/xlink" x="0px" y="0px"
	 viewBox="0 0 470 404" style="enable-background:new 0 0 470 404;" xml:space="preserve">
<style type="text/css">
	.st0{fill:#FFFFFF;}
	.st1{fill:#A5A5A5;}
	.st2{fill:#FF008A;}
</style>
<g>
	<path class="st0" d="M121,333.5c-20.7,0-37.5-16.8-37.5-37.5V150c0-20.7,16.8-37.5,37.5-37.5h57.5V89c0-9.6,7.9-17.5,17.5-17.5h78
		c9.6,0,17.5,7.9,17.5,17.5v23.5H349c20.7,0,37.5,16.8,37.5,37.5v146c0,20.7-16.8,37.5-37.5,37.5H121z M121,122.5
		c-15.2,0-27.5,12.3-27.5,27.5v146c0,15.2,12.3,27.5,27.5,27.5h228c15.2,0,27.5-12.3,27.5-27.5V150c0-15.2-12.3-27.5-27.5-27.5H121z
		 M281.5,112.5V89c0-4.1-3.4-7.5-7.5-7.5h-78c-4.1,0-7.5,3.4-7.5,7.5v23.5H281.5z"/>
	<path class="st1" d="M274,74c8.3,0,15,6.7,15,15v26h60c19.3,0,35,15.7,35,35v146c0,19.3-15.7,35-35,35H121c-19.3,0-35-15.7-35-35
		V150c0-19.3,15.7-35,35-35h60V89c0-8.3,6.7-15,15-15H274 M186,115h98V89c0-5.5-4.5-10-10-10h-78c-5.5,0-10,4.5-10,10V115 M121,326
		h228c16.6,0,30-13.4,30-30V150c0-16.6-13.4-30-30-30H121c-16.6,0-30,13.4-30,30v146C91,312.6,104.4,326,121,326 M274,69h-78
		c-11,0-20,9-20,20v21h-55c-22.1,0-40,17.9-40,40v146c0,22.1,17.9,40,40,40h228c22.1,0,40-17.9,40-40V150c0-22.1-17.9-40-40-40h-55
		V89C294,78,285,69,274,69L274,69z M191,110V89c0-2.8,2.2-5,5-5h78c2.8,0,5,2.2,5,5v21H191L191,110z M121,321c-13.8,0-25-11.2-25-25
		V150c0-13.8,11.2-25,25-25h228c13.8,0,25,11.2,25,25v146c0,13.8-11.2,25-25,25H121L121,321z"/>
</g>
<g>
	<path class="st0" d="M216.6,279c-3.3,0-6-2.7-6-6v-25.6H185c-3.3,0-6-2.7-6-6v-35.7c0-3.3,2.7-6,6-6h25.6V174c0-3.3,2.7-6,6-6h35.7
		c3.3,0,6,2.7,6,6v25.6H284c3.3,0,6,2.7,6,6v35.7c0,3.3-2.7,6-6,6h-25.6V273c0,3.3-2.7,6-6,6H216.6z M250.5,271.1v-29.6
		c0-1.1,0.9-2,2-2h29.6v-32h-29.6c-1.1,0-2-0.9-2-2v-29.6h-32v29.6c0,1.1-0.9,2-2,2h-29.6v32h29.6c1.1,0,2,0.9,2,2v29.6H250.5z"/>
	<path class="st2" d="M252.4,170c2.2,0,4,1.8,4,4v27.6H284c2.2,0,4,1.8,4,4v35.7c0,2.2-1.8,4-4,4h-27.6V273c0,2.2-1.8,4-4,4h-35.7
		c-2.2,0-4-1.8-4-4v-27.6H185c-2.2,0-4-1.8-4-4v-35.7c0-2.2,1.8-4,4-4h27.6V174c0-2.2,1.8-4,4-4H252.4 M184.9,241.5h31.6v31.6h36
		v-31.6h31.6v-36h-31.6v-31.6h-36v31.6h-31.6V241.5 M252.4,166h-35.7c-4.4,0-8,3.6-8,8v23.6H185c-4.4,0-8,3.6-8,8v35.7
		c0,4.4,3.6,8,8,8h23.6V273c0,4.4,3.6,8,8,8h35.7c4.4,0,8-3.6,8-8v-23.6H284c4.4,0,8-3.6,8-8v-35.7c0-4.4-3.6-8-8-8h-23.6V174
		C260.4,169.6,256.8,166,252.4,166L252.4,166z M220.5,177.9h28v27.6c0,2.2,1.8,4,4,4h27.6v28h-27.6c-2.2,0-4,1.8-4,4v27.6h-28v-27.6
		c0-2.2-1.8-4-4-4h-27.6v-28h27.6c2.2,0,4-1.8,4-4V177.9L220.5,177.9z"/>
</g>
</svg>
